<svg xmlns="http://www.w3.org/2000/svg" viewBox="0 0 512 512"><defs><style>.cls-1{fill:#7bb9ec;}.cls-2{fill:#d1982b;}.cls-3{fill:#eaac2e;}.cls-4{fill:#467a9a;}.cls-5{fill:#4a81ae;}.cls-6{fill:#eaac6c;}.cls-7{fill:#f1ce34;}.cls-8{fill:#ceb12e;}.cls-9{fill:#bf6f96;}.cls-10{fill:#dc7da7;}.cls-11{fill:#4e5e9b;}.cls-12{fill:#db3a46;}.cls-13{fill:#773d35;}.cls-14{fill:#d89d67;}.cls-15{fill:#854538;}.cls-16{fill:#af3542;}.cls-17{fill:#fff;}.cls-18{fill:#bc8960;}.cls-19{fill:#ce9664;}.cls-20{fill:#ab7f5a;}.cls-21{fill:#653531;}.cls-22{fill:#492724;}.cls-23{fill:#76c27d;}.cls-24{fill:#629e66;}</style></defs><title>Charity</title><g id="BULINE"><circle class="cls-1" cx="256" cy="262" r="250"/></g><g id="Icons"><path class="cls-2" d="M296,134.45a57.31,57.31,0,0,1-48.74,56.66,56.31,56.31,0,0,1-8.57.65,57.31,57.31,0,1,1,0-114.62,56.32,56.32,0,0,1,8.57.64A57.33,57.33,0,0,1,296,134.45Z"/><path class="cls-3" d="M296,134.45a57.31,57.31,0,0,1-48.74,56.66,57.31,57.31,0,0,1,0-113.33A57.33,57.33,0,0,1,296,134.45Z"/><path class="cls-4" d="M206.75,162.66a57.31,57.31,0,1,1-57.31-57.3,56.68,56.68,0,0,1,10.32.93A57.31,57.31,0,0,1,206.75,162.66Z"/><path class="cls-5" d="M206.75,162.66a57.32,57.32,0,0,1-47,56.39,57.32,57.32,0,0,1,0-112.76A57.31,57.31,0,0,1,206.75,162.66Z"/><rect class="cls-6" x="104.06" y="79.32" width="11.56" height="212.95" transform="translate(-53.75 45) rotate(-18.69)"/><path class="cls-7" d="M97.89,92.9,65.71,122.39a31.34,31.34,0,0,1-44.3-1.93L76.7,69.78Z"/><path class="cls-8" d="M97.89,92.9,65.71,122.39a31.32,31.32,0,0,1-9.44,6L76.7,69.78Z"/><path class="cls-7" d="M40.89,46.48,73.07,17a31.34,31.34,0,0,1,44.3,1.93L62.07,69.59Z"/><path class="cls-8" d="M40.89,46.48,73.07,17a31.13,31.13,0,0,1,9.44-6L62.07,69.59Z"/><path class="cls-7" d="M93.05,41.21l29.49,32.18a31.37,31.37,0,0,1-1.94,44.3L69.93,62.39Z"/><path class="cls-8" d="M93.05,41.21l29.49,32.18a31.1,31.1,0,0,1,6,9.44L69.93,62.39Z"/><path class="cls-7" d="M45.73,98.17,16.24,66a31.34,31.34,0,0,1,1.93-44.3L68.85,77Z"/><path class="cls-8" d="M45.73,98.17,16.24,66a31.45,31.45,0,0,1-6-9.44L68.85,77Z"/><circle class="cls-9" cx="69.38" cy="69.13" r="26.84"/><circle class="cls-10" cx="69.38" cy="69.13" r="16.5"/><path class="cls-7" d="M207.4,162.31h0a12.51,12.51,0,0,1-15.21-9.68l-14.32-71,18.67-4.54,19.92,69.67A12.51,12.51,0,0,1,207.4,162.31Z"/><path class="cls-11" d="M210.72,65.29c-.07.43-.15.85-.25,1.28a28.47,28.47,0,0,1-49,13c-.56-.61-1.08-1.25-1.59-1.91a28.5,28.5,0,1,1,47.06-32h0a28.62,28.62,0,0,1,3.38,8.15A28.3,28.3,0,0,1,210.72,65.29Z"/><path class="cls-12" d="M210.31,53.8a28.62,28.62,0,0,0-3.38-8.15h0a11.67,11.67,0,0,0-14,7.36h0a11.66,11.66,0,0,0-22.13,6.08h0a11.65,11.65,0,0,0-16.65,1.82,28.82,28.82,0,0,0,5.73,16.76c.51.66,1,1.3,1.59,1.91a28.48,28.48,0,0,0,49-13c.1-.43.18-.85.25-1.28A28.3,28.3,0,0,0,210.31,53.8Z"/><path class="cls-13" d="M477.07,233.35l-81.58-7,.22-46.84,81.64-6.28A25.67,25.67,0,0,1,505,198.92l0,9A25.68,25.68,0,0,1,477.07,233.35Z"/><path class="cls-13" d="M224.74,122.84l68.5,44.86-22.39,41.15L196,175.69a25.7,25.7,0,0,1-12.16-35.77l4.28-7.86A25.69,25.69,0,0,1,224.74,122.84Z"/><rect class="cls-13" x="250.61" y="145.97" width="154.8" height="208.92" rx="77.4" transform="translate(61.32 -64.5) rotate(12.38)"/><rect class="cls-14" x="284.08" y="174.81" width="93.38" height="126.04" rx="46.69" transform="translate(58.68 -65.39) rotate(12.38)"/><circle class="cls-15" cx="452.2" cy="87.34" r="47.1"/><circle class="cls-13" cx="281.48" cy="49.87" r="47.1"/><path class="cls-16" d="M269.23,242.92a95.27,95.27,0,0,1-81.75,94.29,94,94,0,0,1-13.51,1,95.25,95.25,0,1,1,95.26-95.25Z"/><path class="cls-12" d="M269.23,242.92a95.27,95.27,0,0,1-81.75,94.29,95.25,95.25,0,0,1,0-188.58A95.27,95.27,0,0,1,269.23,242.92Z"/><circle class="cls-17" cx="185.54" cy="173.04" r="15.45"/><circle class="cls-17" cx="114.26" cy="208.56" r="15.45"/><circle class="cls-17" cx="137.81" cy="297.01" r="15.45"/><circle class="cls-17" cx="223.25" cy="294.29" r="15.45"/><circle class="cls-17" cx="238.7" cy="217.21" r="15.45"/><circle class="cls-17" cx="170.09" cy="242.92" r="15.45"/><path class="cls-6" d="M427.24,264.69V444.15a250.32,250.32,0,0,1-268,48.43V264.69Z"/><path class="cls-18" d="M159.21,264.69V492.58A250,250,0,0,1,94.92,453.2q-8.42-7.11-16.2-14.92V264.69Z"/><path class="cls-19" d="M159.21,264.69V492.58A250,250,0,0,1,94.92,453.2V264.69Z"/><polygon class="cls-20" points="113.38 320.69 32.89 320.69 78.72 264.69 159.21 264.69 113.38 320.69"/><circle class="cls-10" cx="283.53" cy="50.32" r="21.26"/><circle class="cls-10" cx="452.2" cy="87.34" r="21.26"/><path class="cls-13" d="M457.45,137.68a79.43,79.43,0,0,1-14.08,30.71c-19.77,26.52-55.51,41.32-93.51,36.85a114.41,114.41,0,0,1-11.52-1.93c-39.7-8.71-69.54-36.55-79.18-69.51a80.11,80.11,0,0,1-1.47-40C268.3,45.47,321.62,16.09,376.78,28.2A112.88,112.88,0,0,1,388,31.28C436.76,47.16,467.32,92.7,457.45,137.68Z"/><path class="cls-15" d="M457.45,137.68c-9.87,45-56.7,73.54-107.59,67.56-48.7-15.88-79.26-61.42-69.39-106.4S337.17,25.3,388,31.28C436.76,47.16,467.32,92.7,457.45,137.68Z"/><path class="cls-6" d="M443.37,168.39c-19.77,26.52-55.51,41.32-93.51,36.85a114.41,114.41,0,0,1-11.52-1.93c-39.7-8.71-69.54-36.55-79.18-69.51,12.11-22.81,55.06-32.91,102-22.61C404.43,120.69,437.36,144.52,443.37,168.39Z"/><path class="cls-21" d="M378.18,135c-1.41,6.44-10.92,10-22.2,8.71a39.55,39.55,0,0,1-4.4-.73c-13.08-2.87-22.4-11.1-20.8-18.39s13.51-10.85,26.59-8a39.14,39.14,0,0,1,4.3,1.18C372.45,121.36,379.6,128.57,378.18,135Z"/><path class="cls-13" d="M378.18,135c-1.41,6.44-10.92,10-22.2,8.71-10.76-3.55-17.9-10.76-16.49-17.2s10.93-10,22.18-8.72C372.45,121.36,379.6,128.57,378.18,135Z"/><circle class="cls-22" cx="314.33" cy="88.13" r="12.48"/><circle class="cls-17" cx="317.54" cy="84.58" r="5.95"/><circle class="cls-22" cx="408.83" cy="108.88" r="12.48"/><circle class="cls-17" cx="412.05" cy="105.32" r="5.95"/><path class="cls-12" d="M352.64,247.08,322.83,263l-13.08-24.56L307,233.14a13.91,13.91,0,0,1,24.55-13.07l2.79,5.25,5.25-2.79a13.91,13.91,0,1,1,13.08,24.55Z"/><path class="cls-16" d="M322.83,263l-13.08-24.56L307,233.14a13.9,13.9,0,0,1,14.73-20.22A61.85,61.85,0,0,0,322.83,263Z"/><rect class="cls-23" x="199.89" y="202.94" width="89.81" height="89.81" rx="12.19" transform="translate(50.97 -41.61) rotate(10.84)"/><rect class="cls-24" x="216.22" y="219.27" width="57.15" height="57.15" rx="28.57" transform="translate(50.97 -41.61) rotate(10.84)"/><polygon class="cls-19" points="476.09 317.91 208.06 317.91 159.21 264.69 427.24 264.69 476.09 317.91"/></g></svg>